<?xml version="1.0" encoding="UTF-8"?>
<!DOCTYPE svg PUBLIC "-//W3C//DTD SVG 1.1//EN" "http://www.w3.org/Graphics/SVG/1.1/DTD/svg11.dtd">
<!-- Creator: CorelDRAW -->
<svg xmlns="http://www.w3.org/2000/svg" xml:space="preserve" width="63.8528mm" height="40.5694mm" version="1.1" style="shape-rendering:geometricPrecision; text-rendering:geometricPrecision; image-rendering:optimizeQuality; fill-rule:evenodd; clip-rule:evenodd"
viewBox="0 0 6385.28 4056.94"
 xmlns:xlink="http://www.w3.org/1999/xlink"
 xmlns:xodm="http://www.corel.com/coreldraw/odm/2003">
 <defs>
  <style type="text/css">
   <![CDATA[
    .fil0 {fill:#2B2A29}
   ]]>
  </style>
 </defs>
 <g id="Capa_x0020_1">
  <metadata id="CorelCorpID_0Corel-Layer"/>
  <path class="fil0" d="M2335.3 1383.84c0,172.99 0,346.05 0,519.07 0,173.03 0,346.08 0,519.11 0,164.07 40.37,295.69 91.71,409.43 49.4,110.42 78.87,144.6 146.25,231.91 96.8,125.47 286.01,250.6 446.96,304.6 236.68,80.07 502.78,73.12 731.76,-30.05 27.58,-12.17 53.23,-25.99 82.12,-40.61 287.94,-142.56 522.68,-508.11 522.68,-832.63 0,-183.18 0,-366.42 0,-549.58 0,-183.18 0,-366.37 0,-549.97 0,-71.04 -72.53,-146.19 -164.82,-146.19 -280.95,0 -561.82,0 -842.73,0 -280.88,0 -561.8,0 -842.68,0 -93.02,0 -171.25,72.27 -171.25,164.91zm237.96 79.16c514.97,0 1029.94,0 1545.57,0 0,205.98 0,411.46 0,617.01 -515.63,0 -1030.6,0 -1545.57,0 0,-205.55 0,-411.03 0,-617.01l0 0zm0 946.78c0,-36.54 0,-73.06 0,-110.03 514.97,0 1029.94,0 1545.57,0 0,92.22 8.36,243.26 -30.8,323.7 -497.02,0 -993.39,0 -1489.76,0 -5.83,-68.64 -25.01,-88.54 -25.01,-213.67l0 0zm128.25 433.84c427.72,0 855.53,0 1283.3,0 -7.69,28.03 -84.67,114.11 -103.29,129.15 -23.75,19.07 -38.46,33.32 -63.47,52 -248.86,186 -608,209.18 -870.93,49.53 -103.91,-62.93 -178.94,-131.57 -245.61,-230.68l0 0z"/>
  <path class="fil0" d="M2524.47 858.25c0,88.16 63.49,144.57 142.37,151.49 113.55,9.73 206.55,-143.76 112.89,-247.37 -25.01,-28.01 -59.63,-42.23 -95.58,-45.09 -7.03,0 -14.09,0 -20.51,0 -71.2,5.26 -139.17,55.67 -139.17,140.97z"/>
  <path class="fil0" d="M2976.64 852.15c0,151.09 157.75,199.46 246.22,117.79 94.95,-87.73 30.83,-252.66 -87.2,-252.66 -51.91,0 -82.75,4.1 -121.16,44.7 -17.36,18.27 -37.86,56.44 -37.86,90.17z"/>
  <path class="fil0" d="M3428.74 846.05c0,71.08 19.25,124.32 91.09,152.71 117.34,46.71 235.99,-73.48 189.85,-189.26 -23.74,-59.73 -71.2,-87.74 -121.22,-92.22 -8.96,0 -17.3,0 -25.68,0 -69.27,6.11 -134.04,55.67 -134.04,128.77z"/>
  <path class="fil0" d="M4021.36 1010.97c37.81,0 81.45,-23.95 102.58,-43.85 57.12,-53.62 57.12,-147.88 5.79,-204.75 -25.01,-27.59 -59.65,-42.23 -94.93,-45.09 -7.02,0 -14.08,0 -21.17,0 -73.09,5.26 -142.98,60.15 -137.23,152.33 4.48,82.02 73.8,141.36 144.96,141.36z"/>
 </g>
</svg>
